<svg xmlns="http://www.w3.org/2000/svg" width="60" height="60" viewBox="0 0 60 60">
  <g id="next_2_" data-name="next (2)" transform="translate(-0.005)">
    <g id="Group_219" data-name="Group 219" transform="translate(0.004)">
      <path id="Path_259" data-name="Path 259" d="M30,0A30,30,0,1,0,60,30,30.034,30.034,0,0,0,30,0Zm9.047,30.458L25.639,43.871a.668.668,0,0,1-.919,0l-1.092-1.09a.653.653,0,0,1,0-.92L35.174,30.317a.473.473,0,0,0,0-.663L23.649,18.13a.652.652,0,0,1,0-.919l1.09-1.091a.648.648,0,0,1,.46-.189.642.642,0,0,1,.459.189L39.052,29.513a.647.647,0,0,1,.189.479A.639.639,0,0,1,39.052,30.458Z" transform="translate(-0.004)" fill="#c9a385"/>
    </g>
  </g>
</svg>
