<svg id="next_2_" data-name="next (2)" xmlns="http://www.w3.org/2000/svg" width="60" height="60" viewBox="0 0 60 60">
  <g id="Group_219" data-name="Group 219">
    <path id="Path_259" data-name="Path 259" d="M30,0A30,30,0,1,1,0,30,30.034,30.034,0,0,1,30,0ZM20.957,30.458,34.37,43.871a.668.668,0,0,0,.919,0l1.092-1.09a.653.653,0,0,0,0-.92L24.835,30.317a.473.473,0,0,1,0-.663L36.36,18.13a.652.652,0,0,0,0-.919L35.27,16.12a.648.648,0,0,0-.46-.189.642.642,0,0,0-.459.189L20.957,29.513a.647.647,0,0,0-.189.479A.639.639,0,0,0,20.957,30.458Z" transform="translate(-0.004)" fill="#c9a385"/>
  </g>
</svg>
