<svg xmlns="http://www.w3.org/2000/svg" width="122" height="121.1" viewBox="0 0 122 121.1"><defs><style>.a{fill:#fee5d0;}.b{fill:#fedabc;}.c{fill:#c5bec6;}.d{fill:#b5adb7;}.e{fill:#a59da7;}.f{fill:#968d97;}.g{fill:#e3e0e4;}.h{fill:#d4cfd5;}.i{fill:#fdfcfc;}.j{fill:#c48958;}.k{fill:#ba8254;}</style></defs><g transform="translate(24.218 30.266)"><ellipse class="a" cx="8.508" cy="8.636" rx="8.508" ry="8.636"/></g><g transform="translate(80.767 30.266)"><ellipse class="a" cx="8.508" cy="8.636" rx="8.508" ry="8.636"/></g><g transform="translate(33.68 31.199)"><path class="a" d="M138.857,131.464v17.459a21.474,21.474,0,0,0,21.462,21.486h11.45a21.474,21.474,0,0,0,21.462-21.486V131.464Z" transform="translate(-138.857 -131.464)"/></g><g transform="translate(59.971 31.199)"><path class="b" d="M271.467,131.464v17.459A21.474,21.474,0,0,1,250,170.408h7a21.474,21.474,0,0,0,21.462-21.486V131.464Z" transform="translate(-250.005 -131.464)"/></g><g transform="translate(28.247 19.922)"><path class="c" d="M178.3,100.636H118.274a2.739,2.739,0,0,1-2.739-2.739v-9.93a2.739,2.739,0,0,1,2.739-2.739H178.3a2.739,2.739,0,0,1,2.739,2.739V97.9A2.739,2.739,0,0,1,178.3,100.636Z" transform="translate(-115.535 -85.228)"/></g><g transform="translate(84.684 19.922)"><path class="d" d="M361.715,85.228h-7a2.739,2.739,0,0,1,2.739,2.739V97.9a2.739,2.739,0,0,1-2.739,2.739h7a2.739,2.739,0,0,0,2.739-2.739V87.967A2.739,2.739,0,0,0,361.715,85.228Z" transform="translate(-354.72 -85.228)"/></g><g transform="translate(33.91 1.749)"><path class="e" d="M176.326,9.388H156.679A16.778,16.778,0,0,0,139.9,26.167v.905h53.2v-.905A16.779,16.779,0,0,0,176.326,9.388Z" transform="translate(-139.9 -9.388)"/></g><g transform="translate(63.749 1.749)"><path class="f" d="M273.114,9.388h-7A16.779,16.779,0,0,1,282.9,26.167v.905h7v-.905A16.779,16.779,0,0,0,273.114,9.388Z" transform="translate(-266.119 -9.388)"/></g><g transform="translate(50.424 49.387)"><path d="M210.658,210.765a1.749,1.749,0,1,0,1.749-1.749A1.749,1.749,0,0,0,210.658,210.765Z" transform="translate(-210.658 -209.016)"/><g transform="translate(17.393)"><path d="M285.248,210.765A1.749,1.749,0,1,0,287,209.016,1.749,1.749,0,0,0,285.248,210.765Z" transform="translate(-285.248 -209.016)"/></g></g><g transform="translate(17.866 62.689)"><path class="g" d="M162.889,311.425H76.62v-43.22a8.736,8.736,0,0,1,8.867-8.6h68.534a8.736,8.736,0,0,1,8.867,8.6Z" transform="translate(-76.62 -259.607)"/></g><g transform="translate(88.541 62.689)"><path class="h" d="M375.5,259.607h-7a8.6,8.6,0,0,1,8.6,8.6v43.22h7v-43.22A8.6,8.6,0,0,0,375.5,259.607Z" transform="translate(-368.506 -259.607)"/></g><g transform="translate(54.531 81.482)"><ellipse class="i" cx="6.469" cy="6.476" rx="6.469" ry="6.476"/></g><g transform="translate(1.749 111.482)"><path class="j" d="M121.979,476.732H11.524a3.936,3.936,0,1,1,0-7.87H121.979a3.936,3.936,0,1,1,0,7.87Z" transform="translate(-7.5 -468.862)"/></g><g transform="translate(109.321 111.482)"><path class="k" d="M464.62,468.862h-7a3.935,3.935,0,1,1,0,7.87h7a3.935,3.935,0,0,0,0-7.87Z" transform="translate(-457.625 -468.862)"/></g><g transform="translate(0 0)"><path d="M237.194,343.674a8.217,8.217,0,1,0-8.217,8.225A8.231,8.231,0,0,0,237.194,343.674Zm-12.937,0a4.72,4.72,0,1,1,4.72,4.727A4.729,4.729,0,0,1,224.257,343.674Z" transform="translate(-167.976 -255.693)"/><path d="M116.192,111.372H105.53V72.084A10.586,10.586,0,0,0,94.957,61.51H87.791A23.719,23.719,0,0,0,90.425,51.4,10.648,10.648,0,0,0,96.257,33.05V24.545a4.591,4.591,0,0,0-4.586-4.586h-2.2A18.955,18.955,0,0,0,70.56,1.888H58.219a1.787,1.787,0,1,0,0,3.574H70.56a15.379,15.379,0,0,1,15.335,14.5H35.146a15.379,15.379,0,0,1,15.335-14.5h.589a1.787,1.787,0,1,0,0-3.574h-.589A18.955,18.955,0,0,0,31.57,19.959H30.329a4.591,4.591,0,0,0-4.586,4.586v8.6a1.78,1.78,0,0,0-.45.341,10.655,10.655,0,0,0,6.02,17.877A23.717,23.717,0,0,0,33.948,61.51h-6.9A10.586,10.586,0,0,0,16.47,72.084V87.046a1.787,1.787,0,0,0,3.574,0V72.084a7.008,7.008,0,0,1,7-7H94.956a7.008,7.008,0,0,1,7,7v39.288H20.044V94.194a1.787,1.787,0,0,0-3.574,0v17.178H5.808a5.808,5.808,0,1,0,0,11.616H116.192a5.808,5.808,0,1,0,0-11.616ZM90.439,47.786V39.279h1.232A4.576,4.576,0,0,0,95.26,37.54a7.132,7.132,0,0,1,.821,3.329A7.014,7.014,0,0,1,90.439,47.786ZM87.706,23.533h3.966a1.013,1.013,0,0,1,1.012,1.012V34.693a1.013,1.013,0,0,1-1.012,1.012H82.626V23.534h5.08ZM72.061,35.7V23.533h6.991V35.7ZM61.5,35.7V23.533h6.991V35.7Zm-10.565,0V23.533h6.991V35.7Zm-10.565,0V23.533h6.991V35.7ZM29.317,24.545a1.013,1.013,0,0,1,1.012-1.012h6.463V35.7H30.329a1.013,1.013,0,0,1-1.012-1.012Zm-3.4,16.323a7.113,7.113,0,0,1,.82-3.329,4.577,4.577,0,0,0,3.589,1.74H31.3v8.454a7.041,7.041,0,0,1-5.381-6.865ZM37.869,61.191A20.14,20.14,0,0,1,34.874,50.6V39.279H86.865V50.6a20.14,20.14,0,0,1-2.994,10.587,1.791,1.791,0,0,0-.156.319H38.025A1.824,1.824,0,0,0,37.869,61.191Zm78.323,58.223H5.808a2.234,2.234,0,1,1,0-4.468H116.192a2.234,2.234,0,1,1,0,4.468Z" transform="translate(0 -1.888)"/></g></svg>