<svg xmlns="http://www.w3.org/2000/svg" width="139" height="111.136" viewBox="0 0 139 111.136"><defs><style>.a{fill:#ddebfd;}.b{fill:#bed9fd;}.c{fill:#e3e0e4;}.d{fill:#d4cfd5;}.e{fill:#b5adb7;}.f{fill:#a59da7;}.g{fill:#ffd4c6;}.h{fill:#92e0c4;}.i{fill:#61aab8;}.j{fill:#77d1b3;}</style></defs><g transform="translate(2.036 2.036)"><path class="a" d="M136.253,145.867H13.675A6.175,6.175,0,0,1,7.5,139.692v-74.7a6.175,6.175,0,0,1,6.175-6.175H136.253a6.175,6.175,0,0,1,6.175,6.175v74.7A6.175,6.175,0,0,1,136.253,145.867Z" transform="translate(-7.5 -58.818)"/></g><g transform="translate(122.644 2.036)"><path class="b" d="M459.9,58.818h-8.145a6.175,6.175,0,0,1,6.175,6.175v74.7a6.175,6.175,0,0,1-6.175,6.175H459.9a6.175,6.175,0,0,0,6.175-6.175v-74.7a6.175,6.175,0,0,0-6.175-6.175Z" transform="translate(-451.755 -58.818)"/></g><g transform="translate(2.036 71.905)"><path class="c" d="M7.5,316.178v11a6.175,6.175,0,0,0,6.175,6.175H136.253a6.175,6.175,0,0,0,6.175-6.175v-11Z" transform="translate(-7.5 -316.178)"/></g><g transform="translate(122.644 71.905)"><path class="d" d="M457.93,316.177v11a6.175,6.175,0,0,1-6.175,6.175H459.9a6.175,6.175,0,0,0,6.175-6.175v-11Z" transform="translate(-451.755 -316.177)"/></g><g transform="translate(51.534 89.085)"><path class="e" d="M225.755,399.473H189.822l2.715-20.015h30.5Z" transform="translate(-189.822 -379.458)"/></g><g transform="translate(76.607 89.085)"><path class="f" d="M290.323,379.458h-8.145l2.715,20.015h8.145Z" transform="translate(-282.178 -379.458)"/></g><g transform="translate(56.898 24.74)"><path class="g" d="M240.356,148.236s-4.768-5.79-7.663-5.79h-9.02a7.2,7.2,0,0,0-6.313,3.737l-7.589,13.832a1.508,1.508,0,0,0,1.023,2.207c1.974.384,5.069.543,7.424-1.384a42.447,42.447,0,0,0,5.79-5.62l1.2,1.067a75.157,75.157,0,0,0,21.109,13.238l-.153-21.147S240.451,148.33,240.356,148.236Z" transform="translate(-209.583 -142.446)"/></g><g transform="translate(86.205 20.127)"><path class="h" d="M324.682,158.282l12.7-2.226a2.163,2.163,0,0,0,1.757-2.5l-4.612-26.306a2.163,2.163,0,0,0-2.5-1.757l-12.7,2.226a2.163,2.163,0,0,0-1.757,2.5l4.612,26.306A2.163,2.163,0,0,0,324.682,158.282Z" transform="translate(-317.533 -125.455)"/></g><g transform="translate(93.354 52.085)"><path class="i" d="M343.865,244.04h0l4.953-.868Z" transform="translate(-343.865 -243.172)"/></g><g transform="translate(87.995 20.127)"><path class="j" d="M343.941,153.551l-4.612-26.306a2.163,2.163,0,0,0-2.5-1.757l-12.7,2.226,5.016-.879a2.163,2.163,0,0,1,2.5,1.757l4.612,26.306a2.163,2.163,0,0,1-1.757,2.5l7.683-1.347a2.163,2.163,0,0,0,1.758-2.5Z" transform="translate(-324.126 -125.455)"/></g><g transform="translate(41.583 24.811)"><path class="g" d="M195.357,163.07l-13.645-11.764-3.034-5.574a5.774,5.774,0,0,0-5.068-3.025H166.37a5.9,5.9,0,0,0-3.184,1.663l-10.016-.048v20.3h5.881l6.673,5.042a19.728,19.728,0,0,0,27.85-4.139Z" transform="translate(-153.17 -142.707)"/></g><g transform="translate(28.985 19.313)"><path class="h" d="M121.255,155.282l-12.7-2.226a2.163,2.163,0,0,1-1.757-2.5l4.612-26.306a2.163,2.163,0,0,1,2.5-1.757l12.7,2.226a2.163,2.163,0,0,1,1.757,2.5l-4.612,26.306A2.163,2.163,0,0,1,121.255,155.282Z" transform="translate(-106.766 -122.455)"/></g><g transform="translate(35.572 20.549)"><path class="j" d="M144.29,128.033l-5.83-1.022a2.151,2.151,0,0,1-.027.5l-4.9,27.945a2.163,2.163,0,0,1-2.5,1.757l7.9,1.385a2.163,2.163,0,0,0,2.5-1.757l4.612-26.306a2.163,2.163,0,0,0-1.757-2.5Z" transform="translate(-131.029 -127.011)"/></g><g transform="translate(0)"><path d="M102.741,149.6l12.7,2.226a4.252,4.252,0,0,0,.734.064,4.2,4.2,0,0,0,4.128-3.475l.165-.94,4.761,3.6a21.578,21.578,0,0,0,13.068,4.4,22.088,22.088,0,0,0,3.252-.242,21.594,21.594,0,0,0,14.245-8.521q2.666,1.56,5.458,2.9a4.2,4.2,0,0,0,4.04,3.087,4.253,4.253,0,0,0,.734-.064l12.7-2.226a4.2,4.2,0,0,0,3.411-4.861l-4.612-26.307a4.2,4.2,0,0,0-4.861-3.411l-12.7,2.226a4.206,4.206,0,0,0-3.471,3.989,7.522,7.522,0,0,0-4.163-1.667h-9.02a9.228,9.228,0,0,0-4.76,1.323,2.054,2.054,0,0,0-.216-.151,7.785,7.785,0,0,0-3.988-1.1h-9.47a4.206,4.206,0,0,0-3.37-3.208l-12.7-2.226a4.2,4.2,0,0,0-4.861,3.411L99.33,144.735a4.2,4.2,0,0,0,3.411,4.861Zm57.923-27.527,12.7-2.226.022,0a.127.127,0,0,1,.125.105l4.612,26.306a.127.127,0,0,1-.1.147l-12.7,2.226a.127.127,0,0,1-.147-.1l-4.612-26.306a.127.127,0,0,1,.1-.147Zm-17.358,2.384h9.02c.59,0,2.507,1.108,5.2,4.04l2.823,16.1a73.082,73.082,0,0,1-14.156-9.858l-1.2-1.067a2.038,2.038,0,0,0-2.941.248,41.1,41.1,0,0,1-5.491,5.318,6.524,6.524,0,0,1-5.015,1.08l7.231-13.179a5.165,5.165,0,0,1,4.529-2.681Zm-18.812.044a2.052,2.052,0,0,0,.319.027h9.529a3.7,3.7,0,0,1,1.143.183c-.1.153-.19.308-.278.467l-7.589,13.831a3.543,3.543,0,0,0,2.419,5.185c4.6.9,7.491-.488,9.1-1.806a50.484,50.484,0,0,0,4.669-4.324,77.159,77.159,0,0,0,8.508,6.491,17.684,17.684,0,0,1-24.636,3.267l-6.426-4.855Zm-16.541-5.365a.128.128,0,0,1,.147-.1l12.7,2.226a.127.127,0,0,1,.1.147l-4.612,26.306a.127.127,0,0,1-.147.1l-12.7-2.226a.127.127,0,0,1-.1-.147Z" transform="translate(-72.317 -97.678)"/><path d="M130.789,51.318H33.6a2.036,2.036,0,1,0,0,4.072h97.187a4.143,4.143,0,0,1,4.139,4.139v61.658H119.475a2.036,2.036,0,0,0,0,4.072h15.453v8.969a4.143,4.143,0,0,1-4.139,4.139H8.211a4.143,4.143,0,0,1-4.139-4.139v-8.969H111.331a2.036,2.036,0,1,0,0-4.072H4.072V59.529A4.143,4.143,0,0,1,8.211,55.39H25.457a2.036,2.036,0,0,0,0-4.072H8.211A8.22,8.22,0,0,0,0,59.529v74.7a8.22,8.22,0,0,0,8.211,8.211H51.918l-2.162,15.943h-6.4a2.036,2.036,0,0,0,0,4.072H94.131a2.036,2.036,0,0,0,0-4.072H89.245l-2.162-15.943h43.707A8.22,8.22,0,0,0,139,134.228v-74.7a8.22,8.22,0,0,0-8.211-8.211ZM85.136,158.382H53.864l2.163-15.943H82.973Z" transform="translate(0 -51.318)"/></g></svg>