<svg xmlns="http://www.w3.org/2000/svg" width="164.557" height="98" viewBox="0 0 164.557 98"><defs><style>.a{fill:#cd5668;}.b{fill:#fdfcfc;}.c{fill:#f1f1f1;}</style></defs><g transform="translate(75.384 82.647)"><g transform="translate(0 0)"><ellipse class="a" cx="5.989" cy="5.989" rx="5.989" ry="5.989" transform="matrix(0.16, -0.987, 0.987, 0.16, 0, 11.822)"/></g></g><g transform="translate(33.353 82.367)"><g transform="translate(0 0)"><ellipse class="a" cx="5.989" cy="5.989" rx="5.989" ry="5.989" transform="translate(0 11.655) rotate(-76.7)"/></g></g><g transform="translate(115.483 81.063)"><g transform="translate(0)"><circle class="a" cx="5.989" cy="5.989" r="5.989" transform="translate(0 8.468) rotate(-45)"/></g></g><g transform="translate(39.214 2.411)"><path class="b" d="M202.223,155.039a4.492,4.492,0,0,0,3.919-2.319,15.869,15.869,0,0,0-11.466-23.392A18.267,18.267,0,0,0,158.464,126a12.387,12.387,0,0,0-19,3.223q-.784-.078-1.589-.079a15.867,15.867,0,0,0-13.868,23.573,4.492,4.492,0,0,0,3.919,2.319Z" transform="translate(-122.011 -111.15)"/></g><g transform="translate(82.404 2.411)"><path class="c" d="M285.867,129.328A18.264,18.264,0,0,0,256.39,115a18.278,18.278,0,0,1,23.049,17.545,15.87,15.87,0,0,1,11.927,22.5h2.048a4.492,4.492,0,0,0,3.919-2.319,15.869,15.869,0,0,0-11.466-23.392Z" transform="translate(-256.39 -111.15)"/></g><g transform="translate(74.486 38.456)"><g transform="translate(0 0)"><ellipse class="a" cx="5.989" cy="5.989" rx="5.989" ry="5.989" transform="translate(0 4.587) rotate(-22.514)"/></g></g><g transform="translate(0 0)"><path d="M122.837,152.36h16.025a2.41,2.41,0,1,0,0-4.821H122.837a2.086,2.086,0,0,1-1.813-1.082,13.456,13.456,0,0,1,11.762-19.989c.445,0,.9.023,1.35.067a2.41,2.41,0,0,0,2.339-1.216,9.977,9.977,0,0,1,15.3-2.6,2.411,2.411,0,0,0,3.964-1.359,15.869,15.869,0,0,1,21.567-11.721,2.41,2.41,0,0,0,1.822-4.463,20.7,20.7,0,0,0-27.171,11.872,14.8,14.8,0,0,0-18.861,4.6l-.315,0A18.277,18.277,0,0,0,116.813,148.8a6.91,6.91,0,0,0,6.025,3.557Z" transform="translate(-77.707 -103.649)"/><path d="M162.146,205.855H132.023a8.4,8.4,0,0,0-16.091,0H90.323a8.433,8.433,0,0,0-5.635-5.635V173.079a8.433,8.433,0,0,0,5.635-5.634h29.1a6.911,6.911,0,0,0,6.025-3.556,18.282,18.282,0,0,0-11.262-26.542,20.461,20.461,0,0,0-4.174-10.526,2.411,2.411,0,1,0-3.822,2.938,15.712,15.712,0,0,1,3.276,9.576,2.411,2.411,0,0,0,2.049,2.371,13.459,13.459,0,0,1,9.722,19.835,2.087,2.087,0,0,1-1.814,1.082h-29.1a8.4,8.4,0,0,0-16.09,0H70.8a2.41,2.41,0,1,0,0,4.821h3.436a8.433,8.433,0,0,0,5.634,5.634v27.141a8.433,8.433,0,0,0-5.634,5.635H48.623a8.4,8.4,0,0,0-16.091,0H2.41a2.41,2.41,0,0,0,0,4.821H32.533a8.4,8.4,0,0,0,16.091,0h25.61a8.4,8.4,0,0,0,16.09,0h25.61a8.4,8.4,0,0,0,16.091,0h30.122a2.411,2.411,0,0,0,0-4.821ZM78.7,165.034a3.578,3.578,0,1,1,3.578,3.578A3.582,3.582,0,0,1,78.7,165.034Zm-38.122,46.81a3.578,3.578,0,1,1,3.578-3.578A3.582,3.582,0,0,1,40.579,211.844Zm41.7,0a3.578,3.578,0,1,1,3.578-3.578A3.582,3.582,0,0,1,82.278,211.844Zm41.7,0a3.578,3.578,0,1,1,3.578-3.578A3.582,3.582,0,0,1,123.978,211.844Z" transform="translate(0 -118.734)"/></g></svg>