<svg xmlns="http://www.w3.org/2000/svg" width="945.351" height="468.955" viewBox="0 0 945.351 468.955">
  <g id="Group_339" data-name="Group 339" transform="translate(-55.792 -65.629)">
    <g id="Group_338" data-name="Group 338" transform="translate(55.791 65.629)">
      <g id="Group_315" data-name="Group 315" transform="translate(22.871 36.555)">
        <path id="Path_381" data-name="Path 381" d="M1044.371,777.119s101.129,7.93,132.275-51.283c46.309-88.044-43.7-159.013-108.988-146.237-142.274,27.84-108.015-279.289-336.346-216.607-64.2,17.625-237.673-87.077-286.054,80.8-11.5,39.921-52.265,44.317-111.436,69.648-115.8,49.575-62.853,264.512,19.893,265.356S1044.371,777.119,1044.371,777.119Z" transform="translate(-266.905 -346.712)" fill="#ebf2f9"/>
        <path id="Path_382" data-name="Path 382" d="M1207.918,1810.062H319.177a.8.8,0,0,1-.793-.793h0a.8.8,0,0,1,.793-.793h888.74a.8.8,0,0,1,.793.793h0A.8.8,0,0,1,1207.918,1810.062Z" transform="translate(-303.212 -1377.662)" fill="#283250"/>
      </g>
      <path id="Path_383" data-name="Path 383" d="M555.407,403.71l-11.665-.268c3.748,4.858,4.59,9.333,2.256,13.119-2.333,3.863-7.917,7.037-16.255,9.447A150.518,150.518,0,0,0,495.09,266.82,150.912,150.912,0,0,0,329.9,234.5c-2.218.956-4.436,1.95-6.578,2.983l-.02.01c-6.48-1.977-12.791-3.6-18.881-4.832-30.74-6.238-52.554-1.927-61.415,12.14-8.432,13.378-3.842,33.517,12.891,57l-.006.011c-2.257,4.169-4.284,8.453-6.158,12.89-1.415,3.327-2.677,6.655-3.825,10.059-31.439,1.874-48.269,7.407-54.388,17.428-7.114,11.665,2.6,27.322,33.7,42.544,4.284,2.1,8.874,4.169,13.693,6.234a147.327,147.327,0,0,0,10.824,41,150.7,150.7,0,0,0,277.03,1.415c15.337-3.174,25.435-8.147,29.451-14.725C559,414.113,558.658,409.064,555.407,403.71Zm-35.991,24.67a232.342,232.342,0,0,1-37.827,3.06c-23.087.281-49.6-1.542-77.545-5.225q3.527-7.678,6.9-15.757a213.309,213.309,0,0,0,25.112,6.827,127.2,127.2,0,0,0,25.073,2.788c17.554,0,30.131-5.068,36.342-14.928a25.766,25.766,0,0,0,2.5-5.165h-8.948c-.148.272-.306.541-.471.8-4.614,7.324-14.924,11.107-29.4,11.1a119.42,119.42,0,0,1-23.469-2.623,204.506,204.506,0,0,1-23.634-6.393q3.232-8.086,6.272-16.463c5.455-15.04,10.125-29.949,13.9-44.266a380.131,380.131,0,0,0,55.327,3.812q18.336,0,37.991-1.481a142.7,142.7,0,0,1,2.926,28.867A141.035,141.035,0,0,1,519.415,428.38ZM332.982,503.069c-4.352-1.579-6.562-7.825-7.649-12.787-1.718-7.842-2.028-18.857-.9-31.854.571-6.573,1.49-13.562,2.727-20.871a387.532,387.532,0,0,1,52.706,18.237c-3.874,6.681-7.792,12.876-11.71,18.492-7.464,10.7-14.764,18.954-21.109,23.872C343.035,501.269,337.335,504.647,332.982,503.069ZM383.81,448.8a395.634,395.634,0,0,0-55.214-19.12q.988-5.089,2.167-10.35,7.8,1.773,15.81,3.428c15.624,3.2,31.209,5.908,46.465,8.1Q388.506,440.238,383.81,448.8Zm-33.794-31.7q-9.054-1.863-17.831-3.887c2.752-11.453,6.133-23.392,10.08-35.558a348.984,348.984,0,0,0,61.142,30.155q-3.718,8.876-7.625,17.272C380.775,422.925,365.421,420.255,350.015,417.1ZM299.9,262.5a93.617,93.617,0,0,0,5.547,9.76c10.373,16.031,24.072,27.651,33.738,34.576a165.19,165.19,0,0,0,17.752,11.052c-5.73,12.487-11.188,25.813-16.206,39.65q-1.4,3.87-2.735,7.725c-29.975-19.511-55.353-41.9-72-63.567l-.007-.009a142.476,142.476,0,0,1,14.3-20.146c2.218-2.6,4.513-5.125,6.923-7.573l.994-.994A143.271,143.271,0,0,1,299.9,262.5Zm128.171-21.622c4.352,1.579,6.562,7.825,7.649,12.787,1.718,7.842,2.028,18.857.9,31.854a317.8,317.8,0,0,1-8.326,47.589q-7.68-1.321-14.992-3A215.588,215.588,0,0,1,367.437,314.3a323.744,323.744,0,0,1,25.46-44.637c7.464-10.7,14.763-18.954,21.109-23.872,3.311-2.566,7.767-5.312,11.669-5.312A6.99,6.99,0,0,1,428.073,240.883Zm-17.105,96.885q7.478,1.736,15.343,3.1c-3.679,13.844-8.212,28.263-13.492,42.822q-3.053,8.417-6.311,16.55a341.649,341.649,0,0,1-61.585-30.565q1.6-4.691,3.314-9.409c4.906-13.526,10.23-26.544,15.813-38.736A223.169,223.169,0,0,0,410.968,337.768Zm77.926-64.79a141.387,141.387,0,0,1,36.79,63.627C492.972,339,463,338.246,436.2,334.368a324.644,324.644,0,0,0,8.37-48.152c1.386-15.941,1.218-34.823-5.245-45.449q2.247.864,4.474,1.8A140.9,140.9,0,0,1,488.894,272.978ZM388.569,231.4a142.166,142.166,0,0,1,28.951,2.952c-11.148,4.853-22.53,18.36-31.17,30.745a331.446,331.446,0,0,0-26.012,45.555,157.346,157.346,0,0,1-15.948-9.906c-16.585-11.766-26.521-24.087-31.936-32.351a83.85,83.85,0,0,1-6.048-10.807,141.849,141.849,0,0,1,18.343-11.068l.006,0q3.908-1.973,7.959-3.7c.2-.083.39-.169.586-.252.044-.02.091-.037.136-.057.576-.243,1.153-.48,1.732-.714l.466-.185A140.959,140.959,0,0,1,388.569,231.4ZM249.924,249.163c4.614-7.324,14.924-11.1,29.4-11.1a119.421,119.421,0,0,1,23.469,2.623q4.933,1,10.065,2.351l.009,0A148.133,148.133,0,0,0,282.01,266.82c-1.95,1.912-3.825,3.9-5.66,5.967-2.3,2.524-4.475,5.164-6.579,7.841a151.845,151.845,0,0,0-9.332,13.349l-.007.011C247.639,274.993,243.794,258.887,249.924,249.163Zm7.838,68.947c1.263-2.907,2.563-5.776,3.978-8.568l0-.007c17.53,21.911,43.368,44.31,73.557,63.736-4.281,13.028-7.933,25.832-10.88,38.1a583.545,583.545,0,0,1-60.155-17.763c-3.749-1.339-7.382-2.716-10.863-4.093-2.065-.8-4.093-1.645-6.081-2.486-.306-3.06-.536-6.158-.612-9.256-.038-1.492-.077-2.945-.077-4.436,0-1.721.038-3.481.077-5.2a143.544,143.544,0,0,1,6.5-37.636c.65-2.065,1.339-4.092,2.1-6.12C256.078,322.28,256.882,320.176,257.761,318.111Zm-25.588,62.114c-27.118-13.234-39.51-26.009-33.964-35.073,4.475-7.344,20.769-12.316,45.706-14.152a146.515,146.515,0,0,0-5.661,31.822c-.229,3.213-.344,6.426-.382,9.677v.842c0,3.251.115,6.5.306,9.715C236.113,382.138,234.124,381.182,232.174,380.225Zm20.577,16.255c3.672,1.377,7.42,2.754,11.283,4.093,17.758,6.154,37.664,11.873,58.957,16.947q-1.16,5.175-2.141,10.2-2.61-.633-5.224-1.232c-29.438-6.7-51.529-8.063-61.768-8.294a138.69,138.69,0,0,1-5.582-23.431Zm5.01,32.09q-.479-1.139-.937-2.284a319.58,319.58,0,0,1,57.031,7.981q2.776.632,5.548,1.313c-1.331,7.764-2.313,15.183-2.92,22.156-1.149,13.212-1.23,28.444,2.455,39.322a142.751,142.751,0,0,1-61.177-68.488ZM443.8,504.11a142.417,142.417,0,0,1-98.265,4.528c10.5-5.5,21.047-18.141,29.171-29.786,4.19-6.006,8.377-12.653,12.511-19.828a401.1,401.1,0,0,1,68.278,39.5Q449.8,501.57,443.8,504.11ZM488.894,473.7a140.853,140.853,0,0,1-25.814,20.461,409.435,409.435,0,0,0-71.946-42.126c3.461-6.341,6.871-13.039,10.2-20.03a613.077,613.077,0,0,0,65.413,5.36c5.278.153,10.4.153,15.375.115a273.62,273.62,0,0,0,34.194-2.3A141.006,141.006,0,0,1,488.894,473.7Z" transform="translate(-189.302 -222.682)" fill="#adcbf9"/>
      <g id="Group_316" data-name="Group 316" transform="translate(593.787 106.793)">
        <path id="Path_384" data-name="Path 384" d="M2409.333,773.436s28.374,27.924,29.672,38.453-12.869,27-12.869,27Z" transform="translate(-2348.828 -717.91)" fill="#e58638"/>
        <path id="Path_385" data-name="Path 385" d="M2287.322,1746.078s-.92,14.845-3.792,15.058c-.382.028-14.567.028-14.567.028l-18.107-.1s.118-4.363,5.411-5.285,14.152-4.642,17.358-11.638C2277,1736.776,2287.322,1746.078,2287.322,1746.078Z" transform="translate(-2237.057 -1400.524)" fill="#163560"/>
        <path id="Path_386" data-name="Path 386" d="M2424.165,1746.078s-.921,14.845-3.792,15.058c-.382.028-14.567.028-14.567.028l-18.107-.1s.119-4.363,5.411-5.285,14.152-4.642,17.358-11.638C2413.841,1736.776,2424.165,1746.078,2424.165,1746.078Z" transform="translate(-2333.57 -1400.524)" fill="#163560"/>
        <path id="Path_387" data-name="Path 387" d="M2306.544,1161.866s4.736,30.288,22.4,84.055,20.074,77.05,20.074,77.05l18.952-.531s.162-58.761-7.98-85.8-1.757-97.473-1.757-97.473Z" transform="translate(-2276.333 -975.853)" fill="#163560"/>
        <path id="Path_388" data-name="Path 388" d="M2275.218,1144.8a735.154,735.154,0,0,0,7.227,101.684c7.9,56.042,5.22,79.83,5.22,79.83l18.914.629s11.3-56.062,8.063-84.112,15.478-96.252,15.478-96.252Z" transform="translate(-2254.229 -979.824)" fill="#1c468a"/>
        <path id="Path_389" data-name="Path 389" d="M2347.286,728.39l-8.92,6.607-12.893-2.714c.178-1.176,1.03-6.049,1.8-10.462.047-.26.094-.521.137-.775.664-3.755,1.237-6.981,1.237-6.981l12.042-6,4.49-2.238c-.012.079-.348,4.168-.395,4.764A38.553,38.553,0,0,0,2347.286,728.39Z" transform="translate(-2289.683 -670.225)" fill="#ffb27d"/>
        <path id="Path_390" data-name="Path 390" d="M2314.589,759.963c.283-.119,17.538-5.211,19.413-4.592s2.984,4.246,2.984,4.246L2308.762,766S2310.984,761.481,2314.589,759.963Z" transform="translate(-2277.897 -705.132)" fill="#e58638"/>
        <path id="Path_391" data-name="Path 391" d="M2329.641,885.67c-2.925,13.343-51.6,14.926-64.15,2.814-1.427-1.381-1.5-7.8-.959-16.464,1.053-16.92,4.434-42.372,4.566-55.376a102.956,102.956,0,0,1,2.076-18.534,150.511,150.511,0,0,1,6.175-22.185s23.776-7.686,28.224-6.379C2327.006,775.843,2332.566,872.327,2329.641,885.67Z" transform="translate(-2246.484 -715.06)" fill="#ee9849"/>
        <path id="Path_392" data-name="Path 392" d="M2265.273,934.693c1.053-16.92,4.434-42.372,4.566-55.376a102.978,102.978,0,0,1,2.076-18.534l14.3-2.524S2300.2,915.374,2265.273,934.693Z" transform="translate(-2247.225 -777.733)" fill="#e58638"/>
        <path id="Path_393" data-name="Path 393" d="M2281.806,1032.259a3.367,3.367,0,0,1-1.073,3.9c-2.048,1.564-3.375,4.1-2.906,5.952s4.96,4.874,6.517,4.387,4.725-2.927,4.384-3.9,2.131-8.575-1.664-11.5S2281.806,1032.259,2281.806,1032.259Z" transform="translate(-2256.013 -898.883)" fill="#ffb27d"/>
        <path id="Path_394" data-name="Path 394" d="M2245.794,781.5s-13.92,2.148-25.035,18.527-18.427,28.556-16.379,34.46,20.71,26.377,23.927,26.377,8.409-2.34,8.7-7.6c0,0-13.139-19.692-10.551-22.642,1.106-1.26,17.058-14.211,19.336-8.361C2249.563,831.935,2245.794,781.5,2245.794,781.5Z" transform="translate(-2204.037 -723.597)" fill="#ee9849"/>
        <path id="Path_395" data-name="Path 395" d="M2348.2,716.127c-2.644,5.06-12.5,9.435-16.607,11.044.047-.26.094-.52.138-.775.664-3.755,1.237-6.981,1.237-6.981l12.042-6C2347.673,713.372,2349.294,714.044,2348.2,716.127Z" transform="translate(-2294.001 -675.575)" fill="#fca56b"/>
        <path id="Path_396" data-name="Path 396" d="M2309.906,645.826s21.724,6.777,25.736-6.817,9.518-21.874-4.183-26.776-17.939-.513-20.382,3.7S2304.359,643.713,2309.906,645.826Z" transform="translate(-2276.789 -602.692)" fill="#ffb27d"/>
        <path id="Path_397" data-name="Path 397" d="M2327.153,597.483s1.254,16.319,4.539,15.583,6.262-1.288,5.742,3.639-5.114,10.65,4.983,11.435,24.844-26.181,22.111-31.24C2356.639,582.3,2315.725,579.691,2327.153,597.483Z" transform="translate(-2289.457 -585.034)" fill="#163560"/>
      </g>
      <g id="Group_319" data-name="Group 319" transform="translate(727.595 129.132)">
        <g id="Group_317" data-name="Group 317" transform="translate(26.876 57.597)">
          <path id="Path_398" data-name="Path 398" d="M2779.55,1133.365s-8.333,2.14-13.629.544-14.413,1.025-15.882,2.956-.928,2.7,1.691,3.365,11.9,4.625,18,2.334,14.056-2.375,14.056-2.375Z" transform="translate(-2749.238 -1051.696)" fill="#e49963"/>
          <path id="Path_399" data-name="Path 399" d="M2909.173,865.548s-9.36,66.527-24.86,72.486c-7.648,2.94-41.447,9.6-51.446,10.274,0,0-2.449-1.987-1.852-10.075,0,0,35.412-13,40.442-20.071,7.487-10.522-4.648-42.987,4.747-52.869S2901.422,851.164,2909.173,865.548Z" transform="translate(-2806.848 -856.26)" fill="#4a75cb"/>
        </g>
        <path id="Path_400" data-name="Path 400" d="M2981.292,1504.344v-14.63h22.836a1.124,1.124,0,0,0,1.121-1.12v-2.324a1.124,1.124,0,0,0-1.121-1.12h-22.836v-82.57a4.225,4.225,0,0,0-4.212-4.213h-4.519a4.225,4.225,0,0,0-4.213,4.213v82.57h-22.836a1.124,1.124,0,0,0-1.121,1.12v2.324a1.124,1.124,0,0,0,1.121,1.12h22.836v14.63c-16.524,1.249-29.76,7.2-33.474,14.886h79.893C3011.053,1511.545,2997.817,1505.593,2981.292,1504.344Z" transform="translate(-2853.288 -1180.999)" fill="#2b478b"/>
        <path id="Path_401" data-name="Path 401" d="M2860.4,1269.863a116.627,116.627,0,0,1-9.144,13.082c-10.061,12.7-21.012,23.172-22.92,33.071a44.8,44.8,0,0,1-1.768,6.335c-.8,2.267-1.781,4.651-2.918,7.116-4.269,9.273-10.653,19.664-17.027,29.109-11.019,16.328-21.381,29.952-21.381,29.952l-19-.81c.761-1.9,9.049-24.449,20.136-52,4.5-11.184,9.289-23.081,13.908-34.554q.924-2.3,1.84-4.57c1.412-3.511,2.8-6.967,4.159-10.333,10.41-25.87,18.7-46.47,18.7-46.47s41.608-15.762,45.929-5.549C2874.475,1242.665,2871.573,1250.915,2860.4,1269.863Z" transform="translate(-2734.352 -1062.818)" fill="#163560"/>
        <path id="Path_402" data-name="Path 402" d="M2736.167,1742.183s-.93,15.755-3.963,15.98c-.4.03-34.7,0-34.7,0s.273-4.765,5.864-5.739,14.948-4.9,18.335-12.293C2725.262,1732.358,2736.167,1742.183,2736.167,1742.183Z" transform="translate(-2685.873 -1419.927)" fill="#163560"/>
        <path id="Path_403" data-name="Path 403" d="M2954.186,1602.261s13.217,8.493,11.934,11.251c-.171.367-7.475,13.449-7.475,13.449l-9.421,16.646s-3.963-2.356-2.088-7.712,3.006-15.443-1.795-22C2940.292,1606.992,2954.186,1602.261,2954.186,1602.261Z" transform="translate(-2859.891 -1324.801)" fill="#163560"/>
        <path id="Path_404" data-name="Path 404" d="M2777.948,1235.313s-52.556,32.712-58.386,54.575,69.473,68.5,69.473,68.5,8.259-7.287,9.717-12.631c0,0-34.038-40.78-41.422-49.921-4.534-5.615,67.048-19.435,75.793-33.038s5.614-25.048,5.614-25.048Z" transform="translate(-2701.206 -1066)" fill="#1c468a"/>
        <path id="Rectangle_80" data-name="Rectangle 80" d="M13.189,0h88.284a13.188,13.188,0,0,1,13.188,13.188v2.774a13.188,13.188,0,0,1-13.188,13.188H13.189A13.189,13.189,0,0,1,0,15.963V13.189A13.189,13.189,0,0,1,13.189,0Z" transform="translate(64.202 211.267)" fill="#ee9849"/>
        <path id="Path_405" data-name="Path 405" d="M3005.514,796.107s-20.74,11.594-33.253,8.358a29.522,29.522,0,0,1,7.958-7.209c-.274-1.217-.513-2.364-.719-3.431a81.659,81.659,0,0,1-1.412-9.664l9.555-8.562,6.425,1.362c.124.631.259,1.244.413,1.845C2997.462,790.7,3005.514,796.107,3005.514,796.107Z" transform="translate(-2879.655 -741.775)" fill="#e49963"/>
        <path id="Path_406" data-name="Path 406" d="M2976.069,893.558c-1.792,24.105.566,60.763-1.468,67.111-1.757,5.479-21.748,2.222-29.729.395-2.953-.678-6.531-1.645-10.224-2.788-10.306-3.192-21.538-7.748-22.744-11.132a2.958,2.958,0,0,1-.109-.389v-.006c-.021-.086-.035-.171-.047-.253a3.187,3.187,0,0,1,.068-1.158c.4-1.724,1.948-3.59,2.131-7.86.2-4.766.174-10.38.354-16.416.009-.681.018-1.424.092-2.1l0-.248.009-.386c.174-6.731.527-13.811.934-20.828.259-4.409.56-8.777.9-12.959.9-10.8,2.11-20.4,3.713-26.469,2.62-9.9,8.4-16.351,13.657-21.081l3.8-3.263a21.978,21.978,0,0,0,13.8-1.839c4.91-2.331,6.608-4,7.462-3.372C2970.024,837.272,2978.185,864.092,2976.069,893.558Z" transform="translate(-2836.959 -779.003)" fill="#739af0"/>
        <path id="Path_407" data-name="Path 407" d="M2934.648,1131.263c-10.306-3.192-21.538-7.748-22.744-11.132a2.958,2.958,0,0,1-.109-.389v-.006a.784.784,0,0,0-.047-.254,3.187,3.187,0,0,1,.068-1.158c.4-1.724,1.948-3.59,2.131-7.86.2-4.766.174-10.38.354-16.416.009-.681.018-1.423.092-2.1l0-.248.009-.386,38.933-17.657S2955.58,1105.036,2934.648,1131.263Z" transform="translate(-2836.959 -951.99)" fill="#4a75cb"/>
        <path id="Path_408" data-name="Path 408" d="M3008.423,778.807c-1.415,3.575-5.65,12-14.981,15.019a81.659,81.659,0,0,1-1.412-9.664l9.555-8.562,6.425,1.362C3008.134,777.592,3008.269,778.205,3008.423,778.807Z" transform="translate(-2893.599 -741.775)" fill="#d68d5d"/>
        <path id="Path_409" data-name="Path 409" d="M2967.613,722.759s20.5,2.313,21.747-10.478,4.728-21.106-8.311-23.124-16.06,2.616-17.514,6.784S2962.311,721.828,2967.613,722.759Z" transform="translate(-2872.96 -680.465)" fill="#e49963"/>
        <path id="Path_410" data-name="Path 410" d="M2986.969,693.53s-1.3-16.978-19.964-18.737c-12.784-1.2-5.656-12.207-4.293-13.962,0,0,9.794,1.343,19.833,3C3003.617,667.314,2989.038,690.886,2986.969,693.53Z" transform="translate(-2870.658 -660.831)" fill="#2b478b"/>
        <path id="Path_411" data-name="Path 411" d="M2725.094,1073.848l-50.806,1.085-14.444-44.455-1.795.583,15.27,46.995,51.841-1.107Z" transform="translate(-2658.049 -921.535)" fill="#4a75cb"/>
        <g id="Group_318" data-name="Group 318" transform="translate(31.914 61.868)">
          <path id="Path_412" data-name="Path 412" d="M2795.9,1168.068s-8.046,3.046-13.486,2.044-14.212,2.608-15.458,4.689-.626,2.785,2.052,3.159,12.338,3.285,18.148.336,13.708-3.91,13.708-3.91Z" transform="translate(-2766.334 -1080.442)" fill="#e49963"/>
          <path id="Path_413" data-name="Path 413" d="M2915.7,878.5s-1.969,67.154-16.717,74.785c-7.277,3.766-40.135,14.116-50,15.884,0,0-2.654-1.7-2.952-9.809,0,0,33.763-16.825,37.983-24.407,6.281-11.283-9.359-42.212-1.11-53.07S2906.408,865.057,2915.7,878.5Z" transform="translate(-2822.541 -870.752)" fill="#739af0"/>
        </g>
      </g>
      <g id="Group_333" data-name="Group 333" transform="translate(70.134 69.735)">
        <g id="Group_320" data-name="Group 320">
          <path id="Path_414" data-name="Path 414" d="M1144.631,911.082l-20.835,247.73s-2.183,15.017,8.987,15.044c18.366.044,91.413,0,91.413,0s-13.823-3.126-13.655-10.159c.2-8.29,24.351-254.958,24.351-254.958Z" transform="translate(-918.392 -776.276)" fill="#d86713"/>
          <path id="Path_415" data-name="Path 415" d="M1244.491,1158.6c-3.612.01-73.381.229-91.266,0-7.795-.1-9.161-6.93-9.226-11.353a22.121,22.121,0,0,1,.237-3.687l.541-6.439,1.381-16.411,1.22-14.5,1.568-18.631,1.32-15.726,14.8-176.029,90.262-2.342s-10.173,103.229-17.369,178.371c-.8,8.372-1.568,16.4-2.274,23.894q-.344,3.589-.663,7.009c-.667,7.11-1.277,13.638-1.808,19.4-.28,3.038-.538,5.861-.771,8.447-.918,10.134-1.457,16.6-1.464,17.835a10.4,10.4,0,0,0,.176,2.005C1232.639,1158.346,1243.135,1158.6,1244.491,1158.6Z" transform="translate(-932.76 -765.52)" fill="#ee9849"/>
          <path id="Path_416" data-name="Path 416" d="M451.134,459.294l50.75,203.851,6.949,27.918,23.637,94.948H971.6L884.481,459.294Z" transform="translate(-444.1 -459.294)" fill="#f1a34f"/>
          <path id="Path_417" data-name="Path 417" d="M434.3,459.294l-7.033,2.344L506.286,793.1l9.351-7.091Z" transform="translate(-427.268 -459.294)" fill="#ee9849"/>
          <path id="Path_418" data-name="Path 418" d="M695.379,1574.948h436.43l12.052-7.091H704.731Z" transform="translate(-616.361 -1241.139)" fill="#d86713"/>
          <rect id="Rectangle_81" data-name="Rectangle 81" width="94.494" height="4.49" transform="translate(232.28 393.183)" fill="#f1a34f"/>
          <path id="Path_419" data-name="Path 419" d="M948.646,725.808,877.392,463.613H448.75v-4.32H882.8l71.016,265.932Z" transform="translate(-442.419 -459.294)" fill="#f1a34f"/>
          <path id="Path_420" data-name="Path 420" d="M1240.686,1591.911l-.488,3.433-88.866,17.953,1.22-14.5.581-6.887Z" transform="translate(-937.934 -1258.104)" fill="#d86713"/>
          <path id="Path_421" data-name="Path 421" d="M1244.5,1726.049c-3.612.011-73.381.23-91.266,0-7.795-.1-9.161-6.93-9.226-11.353l88.447-16.641c-.918,10.134-1.457,16.6-1.464,17.835a10.4,10.4,0,0,0,.176,2.005C1232.645,1725.791,1243.141,1726.049,1244.5,1726.049Z" transform="translate(-932.767 -1332.964)" fill="#d86713" opacity="0.4"/>
          <path id="Path_422" data-name="Path 422" d="M863.447,1274.5l-192.9,66.141-23.638-94.949Z" transform="translate(-582.174 -1013.923)" fill="#d86713" opacity="0.4"/>
          <path id="Path_423" data-name="Path 423" d="M451.132,459.294H884.479L954.79,721.871H514.268Z" transform="translate(-444.099 -459.294)" fill="#699dee"/>
        </g>
        <ellipse id="Ellipse_20" data-name="Ellipse 20" cx="10.582" cy="12.848" rx="10.582" ry="12.848" transform="translate(291.292 294.972) rotate(-47.775)" fill="#d86713"/>
        <path id="Path_424" data-name="Path 424" d="M977.308,744.151H571.564L525.615,561.1l-3.522-14.037-3.007-11.973-7.047-28.075h399.9l7.739,28.075,3.3,11.973,3.869,14.037Z" transform="translate(-487.055 -492.952)" fill="#e9f3fe"/>
        <path id="Path_425" data-name="Path 425" d="M919.674,535.092H519.086l-7.047-28.075h399.9Z" transform="translate(-487.055 -492.952)" fill="#afcdfb"/>
        <g id="Group_321" data-name="Group 321" transform="translate(41.419 23.243)">
          <path id="Path_426" data-name="Path 426" d="M570.546,538.159a2.651,2.651,0,0,0-2.635,3.51,4.794,4.794,0,0,0,4.385,3.51,2.652,2.652,0,0,0,2.635-3.51A4.793,4.793,0,0,0,570.546,538.159Z" transform="translate(-567.803 -538.159)" fill="#e9f3fe"/>
          <path id="Path_427" data-name="Path 427" d="M610.113,538.159a2.651,2.651,0,0,0-2.635,3.51,4.794,4.794,0,0,0,4.385,3.51,2.652,2.652,0,0,0,2.635-3.51A4.793,4.793,0,0,0,610.113,538.159Z" transform="translate(-595.709 -538.159)" fill="#e9f3fe"/>
          <path id="Path_428" data-name="Path 428" d="M657.1,541.669a4.794,4.794,0,0,0-4.385-3.51,2.652,2.652,0,0,0-2.635,3.51,4.794,4.794,0,0,0,4.385,3.51A2.652,2.652,0,0,0,657.1,541.669Z" transform="translate(-625.758 -538.159)" fill="#e9f3fe"/>
        </g>
        <g id="Group_332" data-name="Group 332" transform="translate(56.664 56.851)">
          <g id="Group_322" data-name="Group 322" transform="translate(262.806 45.989)">
            <path id="Path_429" data-name="Path 429" d="M1554.888,829.542c-2.93-11.749-14.88-21.307-26.64-21.307-5.67,0-10.5,2.188-13.607,6.161-3.233,4.138-4.2,9.665-2.733,15.563,2.929,11.749,14.88,21.307,26.64,21.307,5.67,0,10.5-2.188,13.606-6.161C1555.388,840.967,1556.358,835.44,1554.888,829.542Zm-4.09,14.5c-2.771,3.546-7.121,5.5-12.25,5.5-11.018,0-22.22-8.973-24.969-20-1.339-5.372-.48-10.375,2.42-14.087,2.77-3.546,7.121-5.5,12.25-5.5,11.018,0,22.219,8.973,24.969,20C1554.557,835.331,1553.7,840.334,1550.8,844.046Z" transform="translate(-1511.239 -808.235)" fill="#f1a34f"/>
            <path id="Path_430" data-name="Path 430" d="M1575.636,860.1l-2.141-14.977-.169-.678h-6.031l.169.678,5.327,14.977Z" transform="translate(-1550.774 -833.773)" fill="#f1a34f"/>
            <path id="Path_431" data-name="Path 431" d="M1583.693,906.528l1.352,5.421h5.489l-1.352-5.421Z" transform="translate(-1562.339 -877.559)" fill="#f1a34f"/>
          </g>
          <g id="Group_323" data-name="Group 323" transform="translate(275.904 96.871)">
            <path id="Path_432" data-name="Path 432" d="M1599.33,1002.185c-2.929-11.749-14.88-21.307-26.64-21.307-5.67,0-10.5,2.188-13.606,6.161-3.233,4.139-4.2,9.665-2.734,15.563,2.93,11.749,14.88,21.307,26.64,21.307,5.671,0,10.5-2.188,13.607-6.161C1599.83,1013.609,1600.8,1008.082,1599.33,1002.185Zm-4.09,14.5c-2.77,3.546-7.121,5.5-12.25,5.5-11.018,0-22.219-8.973-24.969-20-1.339-5.373-.48-10.375,2.42-14.087,2.77-3.546,7.121-5.5,12.25-5.5,11.018,0,22.22,8.973,24.969,20C1599,1007.973,1598.14,1012.976,1595.24,1016.688Z" transform="translate(-1555.681 -980.877)" fill="#f1a34f"/>
            <path id="Path_433" data-name="Path 433" d="M1620.078,1032.741l-2.141-14.977-.169-.677h-6.031l.169.677,5.327,14.977Z" transform="translate(-1595.216 -1006.415)" fill="#f1a34f"/>
            <path id="Path_434" data-name="Path 434" d="M1628.135,1079.17l1.352,5.422h5.489l-1.352-5.422Z" transform="translate(-1606.781 -1050.201)" fill="#f1a34f"/>
          </g>
          <g id="Group_324" data-name="Group 324" transform="translate(311.006 23.886)">
            <path id="Path_435" data-name="Path 435" d="M1745.376,846.731a1.836,1.836,0,0,0,1.82-2.424,3.323,3.323,0,0,0-3.03-2.424h-43.18a1.836,1.836,0,0,0-1.82,2.424,3.323,3.323,0,0,0,3.029,2.424Z" transform="translate(-1691.928 -809.862)" fill="#afcdfb"/>
            <path id="Path_436" data-name="Path 436" d="M1722.885,735.664a3.323,3.323,0,0,0-3.029-2.425h-43.18a1.836,1.836,0,0,0-1.82,2.425,3.323,3.323,0,0,0,3.029,2.424h43.18A1.836,1.836,0,0,0,1722.885,735.664Z" transform="translate(-1674.782 -733.239)" fill="#afcdfb"/>
            <path id="Path_437" data-name="Path 437" d="M1753.189,878.07a1.836,1.836,0,0,0,1.82-2.425,3.323,3.323,0,0,0-3.029-2.424H1708.8a1.836,1.836,0,0,0-1.82,2.424,3.323,3.323,0,0,0,3.029,2.425Z" transform="translate(-1697.439 -831.965)" fill="#afcdfb"/>
            <path id="Path_438" data-name="Path 438" d="M1762.824,906.984a3.323,3.323,0,0,0-3.029-2.424h-43.18a1.836,1.836,0,0,0-1.82,2.424,3.323,3.323,0,0,0,3.029,2.425H1761A1.836,1.836,0,0,0,1762.824,906.984Z" transform="translate(-1702.95 -854.068)" fill="#afcdfb"/>
            <path id="Path_439" data-name="Path 439" d="M1789.818,1019.372a1.836,1.836,0,0,0,1.82-2.425,3.324,3.324,0,0,0-3.029-2.425h-43.18a1.836,1.836,0,0,0-1.82,2.425,3.323,3.323,0,0,0,3.029,2.425Z" transform="translate(-1723.272 -931.622)" fill="#afcdfb"/>
            <path id="Path_440" data-name="Path 440" d="M1797.632,1050.711a1.836,1.836,0,0,0,1.82-2.424,3.324,3.324,0,0,0-3.029-2.425h-43.18a1.836,1.836,0,0,0-1.82,2.425,3.323,3.323,0,0,0,3.029,2.424Z" transform="translate(-1728.783 -953.725)" fill="#afcdfb"/>
            <path id="Path_441" data-name="Path 441" d="M1807.266,1079.626a3.323,3.323,0,0,0-3.029-2.425h-43.18a1.836,1.836,0,0,0-1.82,2.425,3.323,3.323,0,0,0,3.029,2.424h43.18A1.836,1.836,0,0,0,1807.266,1079.626Z" transform="translate(-1734.294 -975.828)" fill="#afcdfb"/>
          </g>
          <path id="Path_442" data-name="Path 442" d="M976.822,668.31l-3.014-12.088a5.524,5.524,0,0,0-5.035-4.03H622.68a3.052,3.052,0,0,0-3.025,4.03l3.014,12.088a5.524,5.524,0,0,0,5.035,4.03H973.8A3.052,3.052,0,0,0,976.822,668.31Z" transform="translate(-619.531 -652.192)" fill="#afcdfb"/>
          <path id="Path_443" data-name="Path 443" d="M868.02,652.192l5.024,20.149H627.7a5.524,5.524,0,0,1-5.035-4.031l-3.014-12.088a3.052,3.052,0,0,1,3.025-4.03Z" transform="translate(-619.531 -652.192)" fill="#f1a34f"/>
          <path id="Path_444" data-name="Path 444" d="M1612.2,673.8l.386,1.548h3.829l-2,6.6h2.025l1.96-6.8-.337-1.35Z" transform="translate(-1319.637 -667.434)" fill="#699dee"/>
          <path id="Path_445" data-name="Path 445" d="M1641.081,673.329c-2.165,0-3.17,1.851-2.581,4.213.595,2.386,2.482,4.213,4.659,4.213s3.17-1.851,2.581-4.213C1645.145,675.156,1643.235,673.329,1641.081,673.329Zm1.7,6.809c-1.083,0-2.068-1.106-2.439-2.6-.378-1.513.051-2.6,1.122-2.6s2.071,1.117,2.439,2.6C1644.275,679.044,1643.862,680.138,1642.779,680.138Z" transform="translate(-1338.07 -667.099)" fill="#699dee"/>
          <path id="Path_446" data-name="Path 446" d="M1690.048,689.707a2.674,2.674,0,0,0-2.486-2.083,1.51,1.51,0,0,0-1.471,2.083,2.674,2.674,0,0,0,2.486,2.083A1.514,1.514,0,0,0,1690.048,689.707Zm-1.712,1.024c-.466,0-.887-.477-1.024-1.024s0-1.024.49-1.024c.466,0,.887.477,1.024,1.024S1688.826,690.732,1688.337,690.732Z" transform="translate(-1371.701 -677.181)" fill="#699dee"/>
          <path id="Path_447" data-name="Path 447" d="M1677.649,673.8l-3.916,8.147h1.385l3.916-8.147Z" transform="translate(-1363.037 -667.434)" fill="#699dee"/>
          <path id="Path_448" data-name="Path 448" d="M1669.542,675.57a2.674,2.674,0,0,0-2.486-2.083,1.51,1.51,0,0,0-1.471,2.083,2.675,2.675,0,0,0,2.486,2.083A1.514,1.514,0,0,0,1669.542,675.57Zm-2.735,0c-.139-.559,0-1.024.49-1.024.466,0,.887.477,1.023,1.024s0,1.024-.49,1.024C1667.366,676.595,1666.944,676.117,1666.807,675.57Z" transform="translate(-1357.238 -667.211)" fill="#699dee"/>
          <g id="Group_325" data-name="Group 325" transform="translate(24.64 33.55)">
            <path id="Path_449" data-name="Path 449" d="M910.769,995.075a3.439,3.439,0,0,0,3.418-4.552h0a6.219,6.219,0,0,0-5.688-4.553H706.692a3.44,3.44,0,0,0-3.418,4.553h0a6.218,6.218,0,0,0,5.688,4.552Z" transform="translate(-703.134 -921.148)" fill="#afcdfb"/>
            <path id="Path_450" data-name="Path 450" d="M923.555,1046.357a3.44,3.44,0,0,0,3.417-4.553,6.219,6.219,0,0,0-5.688-4.553H719.478a3.44,3.44,0,0,0-3.418,4.553,6.219,6.219,0,0,0,5.688,4.553Z" transform="translate(-712.152 -957.316)" fill="#afcdfb"/>
            <path id="Path_451" data-name="Path 451" d="M940.327,1095.366a6.219,6.219,0,0,0-5.688-4.552H732.833a3.439,3.439,0,0,0-3.418,4.552,6.219,6.219,0,0,0,5.688,4.553H936.909A3.44,3.44,0,0,0,940.327,1095.366Z" transform="translate(-721.57 -995.092)" fill="#afcdfb"/>
            <path id="Path_452" data-name="Path 452" d="M1006.482,815.387a7.816,7.816,0,0,0,7.148,5.722h22.509c3.16,0,5.083-2.562,4.3-5.722l-10.88-43.638a7.817,7.817,0,0,0-7.149-5.722H999.9c-3.16,0-5.083,2.562-4.3,5.722Z" transform="translate(-909.281 -766.027)" fill="#afcdfb"/>
            <path id="Path_453" data-name="Path 453" d="M1138.668,815.387a7.817,7.817,0,0,0,7.149,5.722h22.509c3.16,0,5.083-2.562,4.3-5.722l-10.88-43.638a7.817,7.817,0,0,0-7.149-5.722h-22.509c-3.16,0-5.083,2.562-4.3,5.722Z" transform="translate(-1002.508 -766.027)" fill="#afcdfb"/>
            <path id="Path_454" data-name="Path 454" d="M1268.386,815.387a7.817,7.817,0,0,0,7.149,5.722h22.509c3.16,0,5.083-2.562,4.3-5.722l-10.88-43.638a7.816,7.816,0,0,0-7.149-5.722H1261.8c-3.16,0-5.083,2.562-4.3,5.722Z" transform="translate(-1093.996 -766.027)" fill="#afcdfb"/>
          </g>
          <g id="Group_327" data-name="Group 327" transform="translate(9.578 33.55)">
            <path id="Path_455" data-name="Path 455" d="M756.664,811.518l-8.951-35.9c-1.321-5.3-6.685-9.591-11.982-9.591h-76.2c-5.3,0-8.52,4.294-7.2,9.591l8.951,35.9c1.321,5.3,6.685,9.591,11.982,9.591h76.2C754.761,821.109,757.984,816.815,756.664,811.518Z" transform="translate(-652.031 -766.027)" fill="#afcdfb"/>
            <g id="Group_326" data-name="Group 326" transform="translate(8.741 9.404)">
              <path id="Path_456" data-name="Path 456" d="M755.686,802.3a1.653,1.653,0,0,0,1.639-2.183h0a2.992,2.992,0,0,0-2.727-2.183h-71.2a1.653,1.653,0,0,0-1.639,2.183h0a2.992,2.992,0,0,0,2.727,2.183Z" transform="translate(-681.689 -797.935)" fill="#699dee"/>
              <path id="Path_457" data-name="Path 457" d="M762.79,830.792a1.653,1.653,0,0,0,1.639-2.183h0a2.992,2.992,0,0,0-2.728-2.183H690.5a1.653,1.653,0,0,0-1.639,2.183h0a2.992,2.992,0,0,0,2.727,2.183Z" transform="translate(-686.699 -818.029)" fill="#699dee"/>
              <path id="Path_458" data-name="Path 458" d="M771.532,857.1a2.992,2.992,0,0,0-2.727-2.183H697.6a1.653,1.653,0,0,0-1.639,2.183,2.992,2.992,0,0,0,2.727,2.183h71.2A1.653,1.653,0,0,0,771.532,857.1Z" transform="translate(-691.709 -838.122)" fill="#699dee"/>
              <path id="Path_459" data-name="Path 459" d="M722.356,886.825h-16.8a1.653,1.653,0,0,0-1.639,2.183,2.992,2.992,0,0,0,2.727,2.183h16.8a1.653,1.653,0,0,0,1.639-2.183A2.992,2.992,0,0,0,722.356,886.825Z" transform="translate(-697.32 -860.627)" fill="#699dee"/>
            </g>
          </g>
          <path id="Path_460" data-name="Path 460" d="M1883.105,1188.511l-4.695-18.831a6.871,6.871,0,0,0-6.285-5.031h-39.972a3.8,3.8,0,0,0-3.777,5.031l4.7,18.831a6.872,6.872,0,0,0,6.285,5.031h39.971A3.8,3.8,0,0,0,1883.105,1188.511Z" transform="translate(-1471.994 -1013.617)" fill="#afcdfb"/>
          <g id="Group_328" data-name="Group 328" transform="translate(360.813 155.966)">
            <path id="Path_461" data-name="Path 461" d="M1882.593,1183.677a.867.867,0,0,0,.859-1.145,1.569,1.569,0,0,0-1.43-1.145h-37.348a.867.867,0,0,0-.86,1.145,1.57,1.57,0,0,0,1.431,1.145Z" transform="translate(-1843.778 -1181.387)" fill="#699dee"/>
            <path id="Path_462" data-name="Path 462" d="M1886.319,1198.621a.868.868,0,0,0,.86-1.145,1.57,1.57,0,0,0-1.431-1.145H1848.4a.867.867,0,0,0-.86,1.145,1.57,1.57,0,0,0,1.431,1.145Z" transform="translate(-1846.406 -1191.926)" fill="#699dee"/>
            <path id="Path_463" data-name="Path 463" d="M1890.9,1212.419a1.57,1.57,0,0,0-1.431-1.145h-37.348a.867.867,0,0,0-.859,1.145,1.569,1.569,0,0,0,1.43,1.145h37.349A.867.867,0,0,0,1890.9,1212.419Z" transform="translate(-1849.035 -1202.466)" fill="#699dee"/>
            <path id="Path_464" data-name="Path 464" d="M1865.109,1228.012H1856.3a.867.867,0,0,0-.86,1.145h0a1.57,1.57,0,0,0,1.431,1.145h8.811a.867.867,0,0,0,.86-1.145A1.569,1.569,0,0,0,1865.109,1228.012Z" transform="translate(-1851.977 -1214.271)" fill="#699dee"/>
          </g>
          <g id="Group_331" data-name="Group 331" transform="translate(40.883 149.235)">
            <g id="Group_329" data-name="Group 329" transform="translate(14.737 8.446)">
              <path id="Path_465" data-name="Path 465" d="M886.57,1190.639a1.3,1.3,0,0,0,1.289-1.717h0a2.346,2.346,0,0,0-2.145-1.717h-76.12a1.3,1.3,0,0,0-1.289,1.717h0a2.345,2.345,0,0,0,2.145,1.717Z" transform="translate(-808.252 -1187.205)" fill="#f1a34f"/>
              <path id="Path_466" data-name="Path 466" d="M891.393,1209.983a1.3,1.3,0,0,0,1.289-1.717h0a2.346,2.346,0,0,0-2.145-1.717h-76.12a1.3,1.3,0,0,0-1.289,1.717h0a2.346,2.346,0,0,0,2.145,1.717Z" transform="translate(-811.653 -1200.848)" fill="#f1a34f"/>
              <path id="Path_467" data-name="Path 467" d="M895.574,1226.752h-76.12a1.3,1.3,0,0,0-1.289,1.717,2.345,2.345,0,0,0,2.145,1.717h76.12a1.3,1.3,0,0,0,1.289-1.717A2.345,2.345,0,0,0,895.574,1226.752Z" transform="translate(-815.206 -1215.097)" fill="#f1a34f"/>
              <path id="Path_468" data-name="Path 468" d="M1219.887,1190.639a1.3,1.3,0,0,0,1.289-1.717h0a2.346,2.346,0,0,0-2.145-1.717h-76.12a1.3,1.3,0,0,0-1.289,1.717h0a2.346,2.346,0,0,0,2.145,1.717Z" transform="translate(-1043.333 -1187.205)" fill="#f1a34f"/>
              <path id="Path_469" data-name="Path 469" d="M1224.71,1209.983a1.3,1.3,0,0,0,1.289-1.717h0a2.346,2.346,0,0,0-2.145-1.717h-76.12a1.3,1.3,0,0,0-1.289,1.717h0a2.345,2.345,0,0,0,2.145,1.717Z" transform="translate(-1046.734 -1200.848)" fill="#f1a34f"/>
              <path id="Path_470" data-name="Path 470" d="M1228.891,1226.752h-76.12a1.3,1.3,0,0,0-1.289,1.717,2.346,2.346,0,0,0,2.145,1.717h76.12a1.3,1.3,0,0,0,1.289-1.717A2.345,2.345,0,0,0,1228.891,1226.752Z" transform="translate(-1050.287 -1215.097)" fill="#f1a34f"/>
              <path id="Path_471" data-name="Path 471" d="M1542.948,1190.639a1.3,1.3,0,0,0,1.289-1.717h0a2.346,2.346,0,0,0-2.145-1.717h-76.12a1.3,1.3,0,0,0-1.289,1.717h0a2.346,2.346,0,0,0,2.145,1.717Z" transform="translate(-1271.18 -1187.205)" fill="#f1a34f"/>
              <path id="Path_472" data-name="Path 472" d="M1547.771,1209.983a1.3,1.3,0,0,0,1.289-1.717h0a2.345,2.345,0,0,0-2.145-1.717h-76.12a1.3,1.3,0,0,0-1.289,1.717h0a2.345,2.345,0,0,0,2.145,1.717Z" transform="translate(-1274.582 -1200.848)" fill="#f1a34f"/>
              <path id="Path_473" data-name="Path 473" d="M1554.1,1228.469a2.345,2.345,0,0,0-2.145-1.717h-76.12a1.3,1.3,0,0,0-1.289,1.717,2.345,2.345,0,0,0,2.145,1.717h76.12A1.3,1.3,0,0,0,1554.1,1228.469Z" transform="translate(-1278.134 -1215.097)" fill="#f1a34f"/>
            </g>
            <g id="Group_330" data-name="Group 330">
              <path id="Path_474" data-name="Path 474" d="M1063.676,1191.841H770.129a6.417,6.417,0,0,1-5.87-4.683l-5.862-23.51a4.19,4.19,0,0,1,.664-3.628,3.943,3.943,0,0,1,3.2-1.471H1055.8a6.418,6.418,0,0,1,5.871,4.683l5.862,23.511a4.191,4.191,0,0,1-.664,3.628A3.944,3.944,0,0,1,1063.676,1191.841ZM762.257,1160.27a2.26,2.26,0,0,0-1.84.81,2.457,2.457,0,0,0-.35,2.152l5.862,23.511a4.672,4.672,0,0,0,4.2,3.378h293.547a2.261,2.261,0,0,0,1.84-.81,2.458,2.458,0,0,0,.35-2.152l-5.862-23.51a4.673,4.673,0,0,0-4.2-3.378Z" transform="translate(-758.25 -1158.549)" fill="#f1a34f"/>
            </g>
          </g>
        </g>
      </g>
      <g id="Group_334" data-name="Group 334" transform="translate(150.113 22.448)">
        <path id="Path_475" data-name="Path 475" d="M730.38,311a.6.6,0,0,0-.682-.515l-6.582.92a6.863,6.863,0,0,0-3.365-5.183l-.4-.231a6.867,6.867,0,0,0-6.426-.236l-2.6-6.522a.6.6,0,1,0-1.122.447l2.672,6.7a6.774,6.774,0,0,0-1.163,1.058,6.652,6.652,0,0,0-.743,1.04l-.724,1.245-6.051-3.514a.6.6,0,1,0-.607,1.045l6.05,3.515-.411.707a6.8,6.8,0,0,0-.8,2.123l-8.273,1.157a.6.6,0,0,0,.083,1.2.638.638,0,0,0,.084-.006l7.98-1.116a6.88,6.88,0,0,0,3.409,6.024l.4.231a6.874,6.874,0,0,0,6.672.116l2.837,7.115a.6.6,0,0,0,1.122-.448l-2.927-7.34A6.8,6.8,0,0,0,720.5,318.6l.411-.707,6.051,3.515a.6.6,0,1,0,.607-1.044l-6.051-3.515.723-1.245a6.749,6.749,0,0,0,.907-2.985l6.719-.94A.6.6,0,0,0,730.38,311Z" transform="translate(-698.64 -298.849)" fill="#afcdfb"/>
        <path id="Path_476" data-name="Path 476" d="M742.978,336.152l-1.741,3a6.884,6.884,0,0,1-9.384,2.488l-.4-.231a6.885,6.885,0,0,1-2.488-9.384l1.741-3a6.652,6.652,0,0,1,.743-1.04l12.064,7.007A6.784,6.784,0,0,1,742.978,336.152Z" transform="translate(-719.378 -319.398)" fill="#e57970"/>
      </g>
      <g id="Group_335" data-name="Group 335" transform="translate(13.432 96.243)">
        <path id="Path_477" data-name="Path 477" d="M265.309,566.451l-7.6-2.156a6.807,6.807,0,0,0-.508-2.509l-.31-.756,6.475-2.653a.6.6,0,1,0-.458-1.118l-6.476,2.653-.546-1.333a6.745,6.745,0,0,0-1.813-2.539l3.353-5.9a.6.6,0,0,0-1.05-.6l-3.284,5.778a6.864,6.864,0,0,0-6.159-.494l-.426.175a6.866,6.866,0,0,0-4.105,4.95l-6.756-1.916a.6.6,0,1,0-.329,1.162l6.94,1.969a6.782,6.782,0,0,0,.129,1.567,6.686,6.686,0,0,0,.371,1.223l.546,1.332-6.475,2.653a.6.6,0,1,0,.458,1.118l6.475-2.653.31.757a6.8,6.8,0,0,0,1.2,1.925l-4.128,7.262a.6.6,0,1,0,1.05.6l3.982-7.005a6.879,6.879,0,0,0,6.853.971l.426-.175a6.875,6.875,0,0,0,4.161-5.217l7.369,2.09a.6.6,0,1,0,.329-1.162Z" transform="translate(-234.876 -549.239)" fill="#afcdfb"/>
        <path id="Path_478" data-name="Path 478" d="M273.856,578.219l1.314,3.207a6.884,6.884,0,0,1-3.75,8.954l-.426.175a6.885,6.885,0,0,1-8.954-3.75l-1.314-3.207a6.66,6.66,0,0,1-.371-1.223l12.91-5.288A6.816,6.816,0,0,1,273.856,578.219Z" transform="translate(-252.845 -568.879)" fill="#e57970"/>
      </g>
      <g id="Group_337" data-name="Group 337" transform="translate(57.791 330.441)">
        <path id="Path_479" data-name="Path 479" d="M447.721,1343.877c-.048.033-.1.078-.169.127-2.532,1.939-19.745,13.68-58.416,8.48q-.4,2.229-.741,4.414c-.116.729-.231,1.454-.337,2.173s-.213,1.418-.313,2.123l-.007.037c-.1.708-.2,1.409-.292,2.111s-.187,1.4-.274,2.1-.171,1.376-.252,2.061l-.006.034c-.077.682-.156,1.36-.228,2.035s-.144,1.354-.212,2.029-.134,1.341-.192,2.007-.119,1.324-.173,1.983c-.04.481-.08.958-.116,1.436-.033.394-.061.788-.086,1.18-.025.334-.047.668-.069,1-.012.175-.024.349-.033.525-.035.559-.07,1.113-.1,1.669-.034.594-.064,1.187-.093,1.778-.005.114-.01.225-.015.339-.018.443-.039.881-.057,1.316-.012.347-.028.69-.036,1.035-.038,1.108-.065,2.2-.084,3.283-.009.5-.017.993-.021,1.484-.005.583-.009,1.159-.008,1.732,0,.046,0,.088,0,.134,0,.562,0,1.119.01,1.674q0,.692.017,1.375c0,.393.013.783.024,1.169,0,.135,0,.274.007.409.012.406.024.808.036,1.21.014.433.03.859.045,1.284q.031.692.064,1.373c.023.534.051,1.062.083,1.591,0,.047.005.1.009.144.029.521.064,1.034.1,1.548.037.541.075,1.078.118,1.609s.085,1.065.133,1.589.091,1.05.144,1.567c.049.5.1.987.153,1.477,0,.059.013.118.018.176.052.478.106.949.163,1.421.06.5.121.994.185,1.49,0,.012,0,.024,0,.039.066.489.128.976.2,1.462s.137.97.211,1.453c0,.012,0,.024,0,.039.073.471.146.937.22,1.4a.056.056,0,0,1,0,.024c.076.475.157.943.238,1.411s.165.94.25,1.406c.1.572.21,1.137.321,1.7.071.351.139.7.211,1.049.09.439.182.87.274,1.3l.039.168c.085.4.177.808.267,1.205.1.44.2.874.307,1.308q.318,1.338.66,2.633c.1.4.209.783.315,1.172.111.408.223.809.34,1.21.081.3.167.588.253.88s.169.576.259.866c.067.227.138.451.208.679q.182.592.365,1.173.378,1.163.77,2.3c.129.376.261.75.394,1.12s.266.74.4,1.1q.555,1.5,1.138,2.927c.114.285.232.568.35.851.169.407.338.811.512,1.211.136.312.272.625.412.935q1.12,2.519,2.306,4.828c.156.3.311.6.468.9q.559,1.058,1.129,2.075c.13.239.268.475.4.711.126.219.252.437.378.652.146.253.294.5.438.748.341.565.679,1.118,1.023,1.661.116.19.236.377.353.559q.557.873,1.123,1.705.2.3.4.591,1.325,1.928,2.647,3.632c.162.21.328.421.491.627q1.278,1.614,2.528,3.038c.265.3.53.6.793.889.023.023.045.046.068.073.158.171.315.345.473.512.943,1.02,1.866,1.954,2.757,2.811.147.142.3.284.443.422.292.279.582.547.87.806s.542.49.8.721c.014.01.027.024.04.034.263.228.518.45.768.665.434.366.855.716,1.261,1.042l.34.269c.74.587,1.431,1.1,2.064,1.556.191.134.378.269.556.392.53.365,1.011.682,1.432.946.127.084.248.16.366.231.26.158.488.3.69.416.045.027.091.051.133.074s.086.054.129.077c.467.269.721.392.721.392q3.706-1.207,7.179-2.663a93.506,93.506,0,0,0,35.348-26.188c.024-.03.049-.057.07-.088,19.7-23.228,28.178-53.287,31.8-73.188.4-2.2.741-4.283,1.031-6.214C460.57,1363.5,448.938,1345.891,447.721,1343.877Z" transform="translate(-385.388 -1343.877)" fill="#588fe0"/>
        <g id="Group_336" data-name="Group 336" transform="translate(4.415 5.907)">
          <path id="Path_480" data-name="Path 480" d="M503.406,1395.967c-3.3,18.144-11.023,45.547-28.987,66.723-.019.028-.041.052-.063.08a85.251,85.251,0,0,1-32.226,23.875q-3.167,1.328-6.545,2.427s-.232-.112-.658-.357c-.039-.021-.076-.045-.117-.07s-.08-.042-.121-.067c-.184-.107-.392-.235-.629-.38-.108-.065-.218-.134-.334-.211-.384-.241-.823-.53-1.306-.862l-.507-.358c-.577-.413-1.207-.883-1.882-1.419l-.31-.245c-.37-.3-.755-.616-1.15-.95-.228-.2-.461-.4-.7-.606-.012-.009-.024-.022-.037-.031q-.359-.317-.733-.658c-.262-.237-.527-.48-.793-.735-.135-.126-.269-.255-.4-.385-.813-.78-1.654-1.633-2.514-2.562-.144-.152-.287-.311-.431-.467-.02-.025-.041-.046-.061-.067-.24-.264-.482-.536-.723-.811q-1.138-1.3-2.3-2.77c-.148-.188-.3-.38-.447-.571q-1.207-1.558-2.414-3.312-.183-.264-.365-.539-.515-.76-1.024-1.554c-.107-.167-.216-.337-.322-.51-.314-.495-.623-1-.933-1.514-.131-.223-.266-.451-.4-.682-.115-.2-.23-.4-.345-.595-.123-.215-.248-.43-.367-.648q-.521-.929-1.029-1.892c-.144-.271-.284-.542-.427-.82q-1.078-2.1-2.1-4.4c-.128-.283-.252-.568-.375-.853-.159-.365-.313-.733-.467-1.1-.108-.258-.215-.516-.319-.776q-.532-1.3-1.037-2.668c-.123-.33-.244-.668-.366-1.005s-.242-.678-.359-1.021q-.356-1.031-.7-2.092-.168-.53-.333-1.069c-.064-.208-.129-.413-.19-.62-.082-.263-.162-.523-.236-.789s-.156-.533-.231-.8c-.106-.366-.208-.732-.309-1.1-.1-.354-.2-.708-.288-1.068q-.313-1.181-.6-2.4c-.1-.4-.19-.791-.279-1.193-.082-.361-.167-.731-.244-1.1-.012-.051-.024-.1-.035-.154-.084-.39-.167-.783-.25-1.183-.065-.317-.127-.637-.192-.957-.1-.512-.2-1.027-.292-1.549-.078-.424-.155-.851-.228-1.282s-.148-.854-.217-1.286a.057.057,0,0,0,0-.022c-.067-.426-.134-.851-.2-1.28,0-.014,0-.025,0-.036-.068-.44-.132-.882-.192-1.324s-.121-.887-.18-1.333c0-.014,0-.025,0-.036-.059-.452-.114-.9-.169-1.359-.052-.43-.1-.859-.149-1.3,0-.053-.012-.107-.017-.161-.049-.447-.095-.893-.139-1.346-.048-.472-.092-.949-.132-1.429s-.083-.961-.121-1.448-.073-.974-.107-1.467c-.032-.468-.063-.936-.089-1.411,0-.042-.005-.088-.008-.131-.029-.482-.055-.963-.075-1.45q-.03-.62-.058-1.251c-.014-.388-.029-.776-.042-1.171-.011-.367-.022-.733-.033-1.1,0-.123,0-.25-.006-.373-.01-.352-.02-.708-.022-1.066q-.014-.623-.016-1.254c-.007-.506-.006-1.014-.009-1.526,0-.042,0-.081,0-.123,0-.522,0-1.047.007-1.579,0-.448.011-.9.019-1.353.017-.989.042-1.983.076-2.993.008-.314.022-.627.033-.944.015-.4.035-.8.051-1.2,0-.1.009-.205.014-.309.027-.538.054-1.08.085-1.621.028-.507.06-1.013.092-1.522.008-.16.019-.319.03-.478.02-.305.039-.61.063-.914.022-.357.049-.717.078-1.076.033-.436.069-.87.106-1.309.049-.6.1-1.2.157-1.808s.114-1.216.175-1.829.124-1.232.193-1.85.138-1.233.208-1.855l.006-.03c.074-.625.148-1.249.23-1.879s.163-1.274.25-1.914.174-1.279.266-1.925l.006-.034q.137-.964.286-1.935c.1-.656.2-1.316.308-1.981.211-1.325.435-2.669.676-4.024,35.255,4.74,50.947-5.964,53.256-7.731.061-.045.11-.085.154-.115,1.11,1.836,11.714,17.886,47.152,25.95C504.082,1392.063,503.768,1393.958,503.406,1395.967Z" transform="translate(-400.367 -1364.225)" fill="#afcdfb"/>
          <path id="Path_481" data-name="Path 481" d="M457.347,1363.921l-22.42,124.49c-.232-.133-.523-.3-.867-.517-.108-.065-.218-.134-.334-.211-.384-.241-.823-.53-1.306-.862l-.507-.358c-.577-.413-1.207-.883-1.882-1.419l-.31-.245c-.37-.3-.755-.616-1.15-.95-.228-.2-.461-.4-.7-.606-.012-.009-.024-.022-.037-.031q-.359-.317-.733-.658c-.262-.237-.527-.48-.793-.735-.135-.126-.269-.255-.4-.385-.813-.781-1.654-1.633-2.514-2.562-.144-.152-.287-.311-.431-.467a.866.866,0,0,0-.061-.067c-.24-.264-.482-.536-.723-.811q-1.138-1.3-2.3-2.77c-.148-.188-.3-.38-.447-.571q-1.207-1.558-2.414-3.312-.183-.264-.365-.539-.515-.76-1.024-1.554c-.107-.167-.216-.337-.322-.51-.314-.495-.623-1-.933-1.514-.131-.223-.266-.451-.4-.682-.115-.2-.23-.4-.345-.6s-.248-.43-.367-.648q-.521-.929-1.029-1.892c-.144-.271-.284-.542-.427-.82q-1.078-2.1-2.1-4.4c-.128-.283-.252-.568-.375-.853-.159-.365-.313-.733-.467-1.1-.108-.258-.215-.516-.319-.776q-.532-1.3-1.037-2.668c-.123-.33-.244-.668-.366-1.005s-.242-.678-.359-1.022q-.356-1.031-.7-2.092-.168-.53-.333-1.069c-.064-.208-.129-.413-.19-.62-.082-.263-.162-.523-.236-.789s-.156-.533-.231-.8c-.106-.366-.208-.731-.309-1.1-.1-.354-.2-.708-.288-1.068q-.313-1.181-.6-2.4c-.1-.4-.19-.791-.279-1.193-.082-.361-.167-.731-.244-1.1-.012-.051-.024-.1-.035-.154-.084-.39-.167-.783-.25-1.183-.065-.317-.127-.637-.192-.957-.1-.512-.2-1.027-.292-1.549-.078-.424-.155-.851-.228-1.282s-.148-.854-.217-1.286a.058.058,0,0,0,0-.022c-.067-.426-.134-.851-.2-1.28,0-.014,0-.025,0-.036-.068-.44-.132-.882-.192-1.324s-.121-.887-.18-1.332c0-.014,0-.025,0-.036-.059-.452-.114-.9-.169-1.359-.052-.43-.1-.859-.149-1.3,0-.053-.012-.107-.017-.161-.049-.447-.095-.893-.139-1.346-.048-.472-.092-.949-.132-1.429s-.083-.961-.121-1.448-.073-.974-.107-1.467c-.032-.468-.063-.936-.089-1.411,0-.042-.005-.088-.008-.131-.029-.482-.055-.963-.075-1.45q-.03-.62-.058-1.251c-.014-.388-.029-.776-.042-1.171-.011-.367-.022-.733-.033-1.1,0-.123,0-.25-.006-.373-.01-.352-.02-.708-.022-1.066q-.014-.623-.016-1.254c-.007-.506-.006-1.014-.009-1.526,0-.042,0-.081,0-.123,0-.522,0-1.047.007-1.579,0-.448.011-.9.019-1.353.017-.989.042-1.983.076-2.993.008-.314.022-.627.033-.944.015-.4.035-.8.051-1.2,0-.1.009-.205.014-.309.027-.538.054-1.08.085-1.621.028-.507.06-1.013.092-1.522.008-.16.019-.319.03-.478.02-.3.039-.61.063-.914.022-.357.049-.717.078-1.076.033-.436.069-.87.106-1.309.049-.6.1-1.2.157-1.808s.114-1.216.175-1.829.124-1.232.193-1.85.138-1.233.208-1.855l.006-.03c.074-.625.148-1.249.23-1.879s.163-1.274.25-1.914.174-1.279.266-1.925l.006-.034q.137-.964.286-1.935c.1-.656.2-1.317.308-1.981.211-1.325.435-2.669.676-4.024C442.148,1377.055,457.347,1363.921,457.347,1363.921Z" transform="translate(-400.367 -1363.921)" fill="#699dee"/>
        </g>
      </g>
    </g>
  </g>
</svg>
