<svg xmlns="http://www.w3.org/2000/svg" width="114.961" height="79.144" viewBox="0 0 114.961 79.144">
  <g id="Group_314" data-name="Group 314" transform="translate(-901.725 -803)">
    <path id="scroll" d="M17,44,7.822,34.291l2.972-2.812L17,38.035l6.165-6.552,2.98,2.8Zm16.955-3.9V12.275A12.288,12.288,0,0,0,21.684,0h-9.41A12.288,12.288,0,0,0,0,12.275V40.1A12.288,12.288,0,0,0,12.274,52.37h9.41A12.288,12.288,0,0,0,33.958,40.1Zm-12.274-36a8.192,8.192,0,0,1,8.183,8.183V40.1a8.192,8.192,0,0,1-8.183,8.183h-9.41A8.192,8.192,0,0,1,4.091,40.1V12.275a8.192,8.192,0,0,1,8.183-8.183ZM16.979,8.285a2.046,2.046,0,1,0,2.046,2.046A2.046,2.046,0,0,0,16.979,8.285Zm0,8.183a2.046,2.046,0,1,0,2.046,2.046A2.046,2.046,0,0,0,16.979,16.468Zm0,8.183A2.046,2.046,0,1,0,19.025,26.7,2.046,2.046,0,0,0,16.979,24.651Zm0,0" transform="translate(944 803)" fill="#fff"/>
    <path id="Path_380" data-name="Path 380" d="M10.926,10.58a1.566,1.566,0,0,0-.608-1.265,6.208,6.208,0,0,0-2.064-.937A6.91,6.91,0,0,1,5.83,7.289,2.136,2.136,0,0,1,5,5.515a2.29,2.29,0,0,1,.93-1.876A3.708,3.708,0,0,1,8.3,2.9a3.51,3.51,0,0,1,2.44.831,2.632,2.632,0,0,1,.9,2.109l-.014.041h-.766a2.114,2.114,0,0,0-.714-1.634A2.633,2.633,0,0,0,8.3,3.6a2.76,2.76,0,0,0-1.822.55A1.7,1.7,0,0,0,5.82,5.5a1.541,1.541,0,0,0,.6,1.248,6.117,6.117,0,0,0,2.109.913,6.89,6.89,0,0,1,2.4,1.128,2.173,2.173,0,0,1,.827,1.777,2.208,2.208,0,0,1-.967,1.87,4.019,4.019,0,0,1-2.437.708A4.428,4.428,0,0,1,5.786,12.4a2.4,2.4,0,0,1-1.06-2.184l.014-.041H5.5a1.909,1.909,0,0,0,.868,1.719,3.558,3.558,0,0,0,1.982.564,3.081,3.081,0,0,0,1.859-.523A1.6,1.6,0,0,0,10.926,10.58ZM22.72,9.89l.014.041a2.9,2.9,0,0,1-.957,2.338,3.745,3.745,0,0,1-2.584.875,3.344,3.344,0,0,1-2.68-1.2,4.634,4.634,0,0,1-1.019-3.107V7.217A4.651,4.651,0,0,1,16.513,4.11,3.336,3.336,0,0,1,19.192,2.9a3.793,3.793,0,0,1,2.594.854,2.89,2.89,0,0,1,.947,2.352l-.014.041h-.766a2.417,2.417,0,0,0-.735-1.876A2.887,2.887,0,0,0,19.192,3.6a2.526,2.526,0,0,0-2.1,1.012,4.087,4.087,0,0,0-.79,2.591V8.837a4.106,4.106,0,0,0,.79,2.608,2.529,2.529,0,0,0,2.1,1.008,2.935,2.935,0,0,0,2.027-.656,2.424,2.424,0,0,0,.735-1.907ZM27.739,8.5V13h-.82V3.054h3.315a3.781,3.781,0,0,1,2.454.7A2.494,2.494,0,0,1,33.542,5.8a2.352,2.352,0,0,1-.455,1.418,2.575,2.575,0,0,1-1.289.913,2.167,2.167,0,0,1,1.33.831,2.61,2.61,0,0,1,.407,1.5V11.4a2.935,2.935,0,0,0,.109.834,1.3,1.3,0,0,0,.362.6V13h-.834a1.365,1.365,0,0,1-.355-.69,4.092,4.092,0,0,1-.1-.923v-.909a1.843,1.843,0,0,0-.591-1.446,2.388,2.388,0,0,0-1.651-.53Zm0-.7h2.4a2.95,2.95,0,0,0,1.969-.543,1.848,1.848,0,0,0,.622-1.466,1.884,1.884,0,0,0-.619-1.514,2.828,2.828,0,0,0-1.876-.53h-2.5ZM45.472,8.837a4.52,4.52,0,0,1-1.056,3.117,3.6,3.6,0,0,1-2.833,1.189,3.527,3.527,0,0,1-2.792-1.189,4.557,4.557,0,0,1-1.042-3.117V7.217A4.583,4.583,0,0,1,38.787,4.1a3.508,3.508,0,0,1,2.789-1.2,3.6,3.6,0,0,1,2.837,1.2,4.527,4.527,0,0,1,1.06,3.117ZM44.659,7.2a3.936,3.936,0,0,0-.817-2.6,2.784,2.784,0,0,0-2.266-.984,2.685,2.685,0,0,0-2.215.984,4.016,4.016,0,0,0-.793,2.6V8.837a4.027,4.027,0,0,0,.8,2.611,2.694,2.694,0,0,0,2.218.984,2.776,2.776,0,0,0,2.266-.981,3.978,3.978,0,0,0,.81-2.615Zm5.853,5.106h5.141V13H49.692V3.047h.82Zm9.811,0h5.141V13H59.5V3.047h.82ZM74.818,13V3.047h3.035a4.048,4.048,0,0,1,3.018,1.217,4.275,4.275,0,0,1,1.193,3.124V8.666a4.263,4.263,0,0,1-1.193,3.121A4.054,4.054,0,0,1,77.853,13Zm.82-9.256V12.31h2.215a3.174,3.174,0,0,0,2.434-1.032,3.691,3.691,0,0,0,.957-2.611v-1.3a3.656,3.656,0,0,0-.96-2.591,3.176,3.176,0,0,0-2.43-1.032Zm18,5.093a4.52,4.52,0,0,1-1.056,3.117,3.6,3.6,0,0,1-2.833,1.189,3.527,3.527,0,0,1-2.792-1.189,4.557,4.557,0,0,1-1.042-3.117V7.217A4.583,4.583,0,0,1,86.953,4.1a3.508,3.508,0,0,1,2.789-1.2,3.6,3.6,0,0,1,2.837,1.2,4.527,4.527,0,0,1,1.06,3.117ZM92.825,7.2a3.936,3.936,0,0,0-.817-2.6,2.784,2.784,0,0,0-2.266-.984,2.685,2.685,0,0,0-2.215.984,4.016,4.016,0,0,0-.793,2.6V8.837a4.027,4.027,0,0,0,.8,2.611,2.694,2.694,0,0,0,2.218.984,2.776,2.776,0,0,0,2.266-.981,3.978,3.978,0,0,0,.81-2.615Zm6.769,2.939.308,1.606h.041l.349-1.606,2.078-7.1h.827l2.085,7.1.335,1.613h.041l.328-1.613,1.757-7.1h.889L106.081,13H105.3l-2.249-7.636-.246-1.073h-.041l-.232,1.073L100.257,13h-.779l-2.55-9.953h.889ZM119.686,13h-.82l-5.653-8.518-.041.007V13h-.82V3.047h.82l5.653,8.5.041-.007V3.047h.82Z" transform="translate(897 869)" fill="#fff"/>
  </g>
</svg>
